<?xml version="1.0" encoding="UTF-8"?>
<svg xmlns="http://www.w3.org/2000/svg" viewBox="0 0 841.89 595.28">
  <defs>
    <style>
      .cls-1, .cls-2 {
        fill: #de1921;
      }

      .cls-3, .cls-4 {
        fill: #fadbe5;
      }

      .cls-5 {
        stroke-width: 3px;
      }

      .cls-5, .cls-6 {
        fill: #e3131e;
      }

      .cls-5, .cls-2, .cls-4 {
        stroke: #1d1d1b;
        stroke-miterlimit: 10;
      }

      .cls-7 {
        fill: #8a0000;
      }

      .cls-8 {
        fill: #f19bb9;
      }

      .cls-9 {
        fill: #fff;
      }

      .cls-10 {
        fill: #ee82a6;
      }

      .cls-2, .cls-4 {
        stroke-width: 5px;
      }

      .cls-11 {
        fill: #f8d1df;
      }

      .cls-12 {
        fill: #f5f5f5;
      }
    </style>
  </defs>
  <g id="Livello_1" data-name="Livello 1">
    <rect class="cls-4" x="-6.26" y="-4.4" width="65.7" height="60.51"/>
    <rect class="cls-2" x="59.44" y="-4.4" width="65.7" height="60.51"/>
    <rect class="cls-4" x="125.14" y="-4.4" width="65.7" height="60.51"/>
    <rect class="cls-2" x="190.83" y="-4.4" width="65.7" height="60.51"/>
    <rect class="cls-4" x="256.53" y="-4.4" width="65.7" height="60.51"/>
    <rect class="cls-2" x="322.22" y="-4.4" width="65.7" height="60.51"/>
    <rect class="cls-4" x="387.92" y="-4.4" width="65.7" height="60.51"/>
    <rect class="cls-2" x="453.61" y="-4.4" width="65.7" height="60.51"/>
    <rect class="cls-4" x="519.31" y="-4.4" width="65.7" height="60.51"/>
    <rect class="cls-2" x="585" y="-4.4" width="65.7" height="60.51"/>
    <rect class="cls-4" x="650.7" y="-4.4" width="65.7" height="60.51"/>
    <rect class="cls-2" x="716.4" y="-4.4" width="65.7" height="60.51"/>
    <rect class="cls-4" x="782.09" y="-4.4" width="65.7" height="60.51"/>
    <rect class="cls-2" x="-6.26" y="56.11" width="65.7" height="60.51"/>
    <rect class="cls-4" x="59.44" y="56.11" width="65.7" height="60.51"/>
    <rect class="cls-2" x="125.14" y="56.11" width="65.7" height="60.51"/>
    <rect class="cls-4" x="190.83" y="56.11" width="65.7" height="60.51"/>
    <rect class="cls-2" x="256.53" y="56.11" width="65.7" height="60.51"/>
    <rect class="cls-4" x="322.22" y="56.11" width="65.7" height="60.51"/>
    <rect class="cls-2" x="387.92" y="56.11" width="65.7" height="60.51"/>
    <rect class="cls-4" x="453.61" y="56.11" width="65.7" height="60.51"/>
    <rect class="cls-2" x="519.31" y="56.11" width="65.7" height="60.51"/>
    <rect class="cls-4" x="585" y="56.11" width="65.7" height="60.51"/>
    <rect class="cls-2" x="650.7" y="56.11" width="65.7" height="60.51"/>
    <rect class="cls-4" x="716.4" y="56.11" width="65.7" height="60.51"/>
    <rect class="cls-2" x="782.09" y="56.11" width="65.7" height="60.51"/>
    <rect class="cls-4" x="-6.26" y="116.62" width="65.7" height="60.51"/>
    <rect class="cls-2" x="59.44" y="116.62" width="65.7" height="60.51"/>
    <rect class="cls-4" x="125.14" y="116.62" width="65.7" height="60.51"/>
    <rect class="cls-2" x="190.83" y="116.62" width="65.7" height="60.51"/>
    <rect class="cls-4" x="256.53" y="116.62" width="65.7" height="60.51"/>
    <rect class="cls-2" x="322.22" y="116.62" width="65.7" height="60.51"/>
    <rect class="cls-4" x="387.92" y="116.62" width="65.7" height="60.51"/>
    <rect class="cls-2" x="453.61" y="116.62" width="65.7" height="60.51"/>
    <rect class="cls-4" x="519.31" y="116.62" width="65.7" height="60.51"/>
    <rect class="cls-2" x="585" y="116.62" width="65.7" height="60.51"/>
    <rect class="cls-4" x="650.7" y="116.62" width="65.7" height="60.51"/>
    <rect class="cls-2" x="716.4" y="116.62" width="65.7" height="60.51"/>
    <rect class="cls-4" x="782.09" y="116.62" width="65.7" height="60.51"/>
    <rect class="cls-2" x="-6.26" y="177.13" width="65.7" height="60.51"/>
    <rect class="cls-4" x="59.44" y="177.13" width="65.7" height="60.51"/>
    <rect class="cls-2" x="125.14" y="177.13" width="65.7" height="60.51"/>
    <rect class="cls-4" x="190.83" y="177.13" width="65.7" height="60.51"/>
    <rect class="cls-2" x="256.53" y="177.13" width="65.7" height="60.51"/>
    <rect class="cls-4" x="322.22" y="177.13" width="65.7" height="60.51"/>
    <rect class="cls-2" x="387.92" y="177.13" width="65.7" height="60.51"/>
    <rect class="cls-4" x="453.61" y="177.13" width="65.7" height="60.51"/>
    <rect class="cls-2" x="519.31" y="177.13" width="65.7" height="60.51"/>
    <rect class="cls-4" x="585" y="177.13" width="65.7" height="60.51"/>
    <rect class="cls-2" x="650.7" y="177.13" width="65.7" height="60.51"/>
    <rect class="cls-4" x="716.4" y="177.13" width="65.7" height="60.51"/>
    <rect class="cls-2" x="782.09" y="177.13" width="65.7" height="60.51"/>
    <rect class="cls-4" x="-6.26" y="237.64" width="65.7" height="60.51"/>
    <rect class="cls-2" x="59.44" y="237.64" width="65.7" height="60.51"/>
    <rect class="cls-4" x="125.14" y="237.64" width="65.7" height="60.51"/>
    <rect class="cls-2" x="190.83" y="237.64" width="65.7" height="60.51"/>
    <rect class="cls-4" x="256.53" y="237.64" width="65.7" height="60.51"/>
    <rect class="cls-2" x="322.22" y="237.64" width="65.7" height="60.51"/>
    <rect class="cls-4" x="387.92" y="237.64" width="65.7" height="60.51"/>
    <rect class="cls-2" x="453.61" y="237.64" width="65.7" height="60.51"/>
    <rect class="cls-4" x="519.31" y="237.64" width="65.7" height="60.51"/>
    <rect class="cls-2" x="585" y="237.64" width="65.7" height="60.51"/>
    <rect class="cls-4" x="650.7" y="237.64" width="65.7" height="60.51"/>
    <rect class="cls-2" x="716.4" y="237.64" width="65.7" height="60.51"/>
    <rect class="cls-4" x="782.09" y="237.64" width="65.7" height="60.51"/>
    <rect class="cls-2" x="-6.26" y="298.15" width="65.7" height="60.51"/>
    <rect class="cls-4" x="59.44" y="298.15" width="65.7" height="60.51"/>
    <rect class="cls-2" x="125.14" y="298.15" width="65.7" height="60.51"/>
    <rect class="cls-4" x="190.83" y="298.15" width="65.7" height="60.51"/>
    <rect class="cls-2" x="256.53" y="298.15" width="65.7" height="60.51"/>
    <rect class="cls-4" x="322.22" y="298.15" width="65.7" height="60.51"/>
    <rect class="cls-2" x="387.92" y="298.15" width="65.7" height="60.51"/>
    <rect class="cls-4" x="453.61" y="298.15" width="65.7" height="60.51"/>
    <rect class="cls-2" x="519.31" y="298.15" width="65.7" height="60.51"/>
    <rect class="cls-4" x="585" y="298.15" width="65.7" height="60.51"/>
    <rect class="cls-2" x="650.7" y="298.15" width="65.7" height="60.51"/>
    <rect class="cls-4" x="716.4" y="298.15" width="65.7" height="60.51"/>
    <rect class="cls-2" x="782.09" y="298.15" width="65.7" height="60.51"/>
    <rect class="cls-4" x="-6.26" y="358.66" width="65.7" height="60.51"/>
    <rect class="cls-2" x="59.44" y="358.66" width="65.7" height="60.51"/>
    <rect class="cls-4" x="125.14" y="358.66" width="65.7" height="60.51"/>
    <rect class="cls-2" x="190.83" y="358.66" width="65.7" height="60.51"/>
    <rect class="cls-4" x="256.53" y="358.66" width="65.7" height="60.51"/>
    <rect class="cls-2" x="322.22" y="358.66" width="65.7" height="60.51"/>
    <rect class="cls-4" x="387.92" y="358.66" width="65.7" height="60.51"/>
    <rect class="cls-2" x="453.61" y="358.66" width="65.7" height="60.51"/>
    <rect class="cls-4" x="519.31" y="358.66" width="65.7" height="60.51"/>
    <rect class="cls-2" x="585" y="358.66" width="65.7" height="60.51"/>
    <rect class="cls-4" x="650.7" y="358.66" width="65.7" height="60.51"/>
    <rect class="cls-2" x="716.4" y="358.66" width="65.7" height="60.51"/>
    <rect class="cls-4" x="782.09" y="358.66" width="65.7" height="60.51"/>
    <rect class="cls-2" x="-6.26" y="419.17" width="65.7" height="60.51"/>
    <rect class="cls-4" x="59.44" y="419.17" width="65.7" height="60.51"/>
    <rect class="cls-2" x="125.14" y="419.17" width="65.7" height="60.51"/>
    <rect class="cls-4" x="190.83" y="419.17" width="65.7" height="60.51"/>
    <rect class="cls-2" x="256.53" y="419.17" width="65.7" height="60.51"/>
    <rect class="cls-4" x="322.22" y="419.17" width="65.7" height="60.51"/>
    <rect class="cls-2" x="387.92" y="419.17" width="65.7" height="60.51"/>
    <rect class="cls-4" x="453.61" y="419.17" width="65.7" height="60.51"/>
    <rect class="cls-2" x="519.31" y="419.17" width="65.7" height="60.51"/>
    <rect class="cls-4" x="585" y="419.17" width="65.7" height="60.51"/>
    <rect class="cls-2" x="650.7" y="419.17" width="65.7" height="60.51"/>
    <rect class="cls-4" x="716.4" y="419.17" width="65.7" height="60.51"/>
    <rect class="cls-2" x="782.09" y="419.17" width="65.7" height="60.51"/>
    <rect class="cls-4" x="-6.26" y="479.68" width="65.7" height="60.51"/>
    <rect class="cls-2" x="59.44" y="479.68" width="65.7" height="60.51"/>
    <rect class="cls-4" x="125.14" y="479.68" width="65.7" height="60.51"/>
    <rect class="cls-2" x="190.83" y="479.68" width="65.7" height="60.51"/>
    <rect class="cls-4" x="256.53" y="479.68" width="65.7" height="60.51"/>
    <rect class="cls-2" x="322.22" y="479.68" width="65.7" height="60.51"/>
    <rect class="cls-4" x="387.92" y="479.68" width="65.7" height="60.51"/>
    <rect class="cls-2" x="453.61" y="479.68" width="65.7" height="60.51"/>
    <rect class="cls-4" x="519.31" y="479.68" width="65.7" height="60.51"/>
    <rect class="cls-2" x="585" y="479.68" width="65.7" height="60.51"/>
    <rect class="cls-4" x="650.7" y="479.68" width="65.7" height="60.51"/>
    <rect class="cls-2" x="716.4" y="479.68" width="65.7" height="60.51"/>
    <rect class="cls-4" x="782.09" y="479.68" width="65.7" height="60.51"/>
    <rect class="cls-2" x="-6.26" y="540.19" width="65.7" height="60.51"/>
    <rect class="cls-4" x="59.44" y="540.19" width="65.7" height="60.51"/>
    <rect class="cls-2" x="125.14" y="540.19" width="65.7" height="60.51"/>
    <rect class="cls-4" x="190.83" y="540.19" width="65.7" height="60.51"/>
    <rect class="cls-2" x="256.53" y="540.19" width="65.7" height="60.51"/>
    <rect class="cls-4" x="322.22" y="540.19" width="65.7" height="60.51"/>
    <rect class="cls-2" x="387.92" y="540.19" width="65.7" height="60.51"/>
    <rect class="cls-4" x="453.61" y="540.19" width="65.7" height="60.51"/>
    <rect class="cls-2" x="519.31" y="540.19" width="65.7" height="60.51"/>
    <rect class="cls-4" x="585" y="540.19" width="65.7" height="60.51"/>
    <rect class="cls-2" x="650.7" y="540.19" width="65.7" height="60.51"/>
    <rect class="cls-4" x="716.4" y="540.19" width="65.7" height="60.51"/>
    <rect class="cls-2" x="782.09" y="540.19" width="65.7" height="60.51"/>
  </g>
  <g id="Livello_2" data-name="Livello 2">
    <g>
      <path class="cls-3" d="M103.69,327.03c-.38-.4-.31-1.16-.62-1.62,1.4-.57,2.33,1.26.62,1.62Z"/>
      <g>
        <path class="cls-7" d="M327.54,217.78c-22.53-29.47-60.41-39.86-95.92-43.09-21.52-1.96-41,7.24-54.59,23.38-5.31,6.31-13.43,9.49-21.34,7.15-18.96-5.59-40.41-.99-52.49,14.48l-14.91,19.09c-15.92,20.4-30.63,39.94-32.64,65.88-2.1,27.12,6.15,52.71,24.36,73.15,11.73,13.17,24.97,24.35,41.83,30.67,24.23,9.08,50.1,8.99,75.26,1.76,5.69,3.6,12.5,7.08,19.8,4.79,9.98-3.12,13.41-12.12,15.18-20.34.44-2.06,5.6-3.11,6.21-1.71,4.15,9.41,3.75,18.81,16.43,25.31,13.94,7.15,35.08-1.3,40.82-18.11,2.66-7.81-.43-14.93-3.48-22.48,22.59-13.9,42.11-31.66,51.05-56.53,12.42-34.54,6.7-74.26-15.57-103.4ZM79.7,352.26c-3.91-6.02-6.25-11.98-6.9-18.73,3.56-.42,6.2,1.61,8.61.12,2.1-1.31-2.88-14.52-4.14-15.77-3.75-3.73-8.22,13.6-5.39,6.55-3.42-6.79-2.36-13.73-1.19-19.74.09-23.61,13.39-42.46,29.43-58.74,5.71-5.79,21.68-37.98,52.21-28.69,39.41,12,36.71-39.03,83.2-28.73,11.39,2.52,22.48,4.35,33.7,7.66,28.45,8.42,52.11,28.07,60.58,56.76-9.79-.88-16.06-5.95-22.86-10.76-22.01-15.55-47.08-25.02-74.59-24.52-33.47.6-38.42,19.5-60.19,22.44-11.9,1.61-25.03,2.89-35.47,9.66-20.72,13.45-36.59,33.35-44.47,56.26-3.29,9.58-4.51,18.97-6.96,28.59-1.59,6.22-.86,12.72-5.56,17.62ZM248.15,230.17c9.44,2.73,23.9,1.99,29.61,10.31,8.94,13.04,3,32.93-4.29,47.59-6.28-12.48-8.77-24.11-16.84-34.16-4.04-5.03-7.04-10.45-8.2-16.2-.85-2.38-2.5-4.98-.29-7.54ZM188.26,248.71c9.43-9.3,39.56-26.62,48.6-15.57,4.06,4.96,9.01,12.63,4.71,17.83-3.91,4.74-12.78,3.26-18.32,5.03-9,2.87-16.5,8.28-25.89,9.95-4.6.82-6.23-5.26-6.77-8.31-.89-2.99-3.73-7.05-2.33-8.93ZM185.04,271.01c-7.87,5-17.64,5.14-26.08,8.34-7.51,2.85-13.54,9.94-22,10.88-3.13.35-4.72-4.69-5.72-6.42-10.32-18.38,32.87-37.06,44.91-31.33,2.51-5.25,15.33,14.43,8.89,18.52ZM139.56,337.55c-13.57-2.91-25.7-10.51-32.36-21.06-1.36.18-2.71-1.18-3.51-2.05-.38-.4-.31-1.16-.62-1.62.99-7.9,5.12-17.45,11.04-22.46.92-2.43,2.73-9.78,7.1-7.22,5.79,3.4,7.06,11.76,8.32,17.82,2.6,12.44,7.9,22.62,10.03,36.58ZM188.42,399.46c-37.68,8.02-73.09.42-96.42-29.33-2.63-1.61-4.28-3.4-4.41-5.76-.08-1.36,3.14-8.88,5.35-6.82.44.42.6,1.84,1.15,2.05,7.3,2.88,12.76,7.7,20.22,9.73,15.14,4.13,30.43,5.19,46.19,5.45,14.88.25,32.83,10.2,27.94,24.67ZM270.69,366.77c3,6.43,7.99,11.44,11.51,17.28,5.59,9.26,2.53,19.45-6.29,24.26-8.86,4.83-19.43,1.19-23.99-8.63-5.44-11.7-4.09-23.21-17.77-29.94-4.36.88-8.33,1.6-12.23,4.09-7.58,11.6,9.38,25.76-6.38,32.2-4.73,1.93-11.63.16-14.07-5.3-1.58-3.53-1.18-6.93-1.95-9.85-.51-1.95-1.52-3.79-1.83-5.82-.17-1.06-.92-1.99-1.14-3.04-1.81-.66-1.67-2.99-2.71-4.16-6.69-7.56-15.57-12.92-26.8-13.53-7.59-.42-15.83-2.58-22.89-2.25-11.55.56-23.6,1.22-34.57-5.75,4.01-5,7.24-10.83,12.24-14.86,8.53,1.98,21.77,8.87,27.32,1.75,3.61-4.64-5.08-18.72-4.61-24.52,14.58-12.96,34.61-16.07,53.13-12.05,7.54,1.64,10.88-.12,15.11-6.2,10.29-14.78,26.75-24.96,44.64-23.74,4.63,6.41,5.5,22.04,11.59,24.01,10.46,3.39,15.43-17.32,19.73-20.98,5.02-4.26,15.87-1.76,21.89-2.44.84,10.73-4.98,17.13-9.29,24.1-12.93,20.93-43.07,38.72-30.65,65.35ZM284.26,366.65c-11.97-15.82,4.43-31.44,14.64-43.3,15.24-17.7,24.67-39.22,23.26-62.04,4.71.51,7.61.19,11.24,1.56,8.39,44.76-8.11,80.56-49.14,103.79Z"/>
        <path class="cls-8" d="M277.24,321.2c.44,3.96-3.21,6-6.69,6.99-.38-.99.79-2.5.58-3.54,2.08-1.05,3.9-2.62,6.11-3.45Z"/>
        <path class="cls-8" d="M240.15,345.83c-.55.29-1.15.55-1.8.79,1.63-.31,2.1-.57,1.8-.79Z"/>
        <path class="cls-3" d="M71.89,324.43c-3.42-6.79-2.36-13.73-1.19-19.74.09-23.61,13.39-42.46,29.43-58.74,5.71-5.79,21.68-37.98,52.21-28.69,39.41,12,36.71-39.03,83.2-28.73,11.39,2.52,22.48,4.35,33.7,7.66,28.45,8.42,52.11,28.07,60.58,56.76-9.79-.88-16.06-5.95-22.86-10.76-22.01-15.55-47.08-25.02-74.59-24.52-33.47.6-38.42,19.5-60.19,22.44-11.9,1.61-25.03,2.89-35.47,9.66-20.72,13.45-36.59,33.35-44.47,56.26-3.29,9.58-4.51,18.97-6.96,28.59-1.59,6.22-.86,12.72-5.56,17.62-3.91-6.02-6.25-11.98-6.9-18.73"/>
        <path class="cls-3" d="M310.63,277.32c.84,10.73-4.98,17.13-9.29,24.1-12.93,20.93-43.07,38.72-30.65,65.35,3,6.43,7.99,11.44,11.51,17.28,5.59,9.26,2.53,19.45-6.29,24.26-8.86,4.83-19.43,1.19-23.99-8.63-5.44-11.7-4.09-23.21-17.77-29.94-4.36.88-8.33,1.6-12.23,4.09-7.58,11.6,9.38,25.76-6.38,32.2-4.73,1.93-11.63.16-14.07-5.3-1.58-3.53-1.18-6.93-1.95-9.85-.51-1.95-1.52-3.79-1.83-5.82,2.54-.83,1.15-3.19-1.14-3.04-1.81-.66-1.67-2.99-2.71-4.16-6.69-7.56-15.57-12.92-26.8-13.53-7.59-.42-15.83-2.58-22.89-2.25-11.55.56-23.6,1.22-34.57-5.75,4.01-5,7.24-10.83,12.24-14.86,8.53,1.98,21.77,8.87,27.32,1.75,3.61-4.64-5.08-18.72-4.61-24.52,14.58-12.96,34.61-16.07,53.13-12.05,7.54,1.64,10.88-.12,15.11-6.2,10.29-14.78,26.75-24.96,44.64-23.74,4.63,6.41,5.5,22.04,11.59,24.01,10.46,3.39,15.43-17.32,19.73-20.98,5.02-4.26,15.87-1.76,21.89-2.44Z"/>
        <path class="cls-3" d="M238.35,346.61c.65-.23,1.25-.5,1.8-.79.3.22-.17.48-1.8.79Z"/>
        <path class="cls-3" d="M333.4,262.86c8.39,44.76-8.11,80.56-49.14,103.79-11.97-15.82,4.43-31.44,14.64-43.3,15.24-17.7,24.67-39.22,23.26-62.04,4.71.51,7.61.19,11.24,1.56Z"/>
        <path class="cls-9" d="M185.04,271.01c-7.87,5-17.64,5.14-26.08,8.34-7.51,2.85-13.54,9.94-22,10.88-3.13.35-4.72-4.69-5.72-6.42-10.32-18.38,32.87-37.06,44.91-31.33,2.51-5.25,15.33,14.43,8.89,18.52Z"/>
        <path class="cls-9" d="M241.57,250.97c-3.91,4.74-12.78,3.26-18.32,5.03-9,2.87-16.5,8.28-25.89,9.95-4.6.82-6.23-5.26-6.77-8.31-.89-2.99-3.73-7.05-2.33-8.93,9.43-9.3,39.56-26.62,48.6-15.57,4.06,4.96,9.01,12.63,4.71,17.83Z"/>
        <path class="cls-9" d="M129.53,300.97c2.6,12.44,7.9,22.62,10.03,36.58-13.57-2.91-25.7-10.51-32.36-21.06-1.36.18-2.71-1.18-3.51-2.05,1.71-.36.78-2.19-.62-1.62.99-7.9,5.12-17.45,11.04-22.46.92-2.43,2.73-9.78,7.1-7.22,5.79,3.4,7.06,11.76,8.32,17.82Z"/>
        <path class="cls-9" d="M273.47,288.07c-6.28-12.48-8.77-24.11-16.84-34.16-4.04-5.03-7.04-10.45-8.2-16.2-.85-2.38-2.5-4.98-.29-7.54,9.44,2.73,23.9,1.99,29.61,10.31,8.94,13.04,3,32.93-4.29,47.59Z"/>
        <path class="cls-3" d="M188.42,399.46c-37.68,8.02-73.09.42-96.42-29.33-2.63-1.61-4.28-3.4-4.41-5.76-.08-1.36,3.14-8.88,5.35-6.82.44.42.6,1.84,1.15,2.05,7.3,2.88,12.76,7.7,20.22,9.73,15.14,4.13,30.43,5.19,46.19,5.45,14.88.25,32.83,10.2,27.94,24.67Z"/>
        <path class="cls-3" d="M197.7,385.07c-.17-1.06-.92-1.99-1.14-3.04,2.3-.15,3.69,2.21,1.14,3.04Z"/>
        <path class="cls-1" d="M238.35,346.61c.65-.23,1.25-.5,1.8-.79.3.22-.17.48-1.8.79Z"/>
        <path class="cls-9" d="M174.69,359.31c3.91-.7,10.01-1.68,13.43.67,3.78,2.6,7.55,6.02,10.08,9.82,2.74,4.11,9.33-.11,6.58-4.24-3.21-4.82-7.98-9.22-12.89-12.37-4.81-3.08-11.99-2.55-17.46-1.57-2.1.38-3.83,1.75-3.77,4.02.05,1.86,1.96,4.04,4.04,3.67h0Z"/>
      </g>
      <g>
        <path class="cls-5" d="M786.49,301.93c-.43-2.21-2.84-3.39-5.06-4.88-34.28-23.03-73.73-46.09-114.39-21.06-6.69-14.91-18.26-24.78-32.17-28.88-14.52-4.28-28.85-1.24-42.22,8.47-3.69-13.59-11.22-23.75-20.75-29.03-20.3-11.24-35.09-2.9-54.1,6.7-23.02-39.25-77.74-41.52-118.4-33.73,6.01,17.59,17.97,28.09,29.92,39.07-18,12.86,14.29,42.1,28.21,47.65-4.61,6.32-5,12.4.03,18.68,13.76,17.21,34.83,24.49,57.6,21.71,10.31,13.98,18.82,28.32,26.61,43.67,6.25,12.31,4.56,26.93,13.26,28.91,7.12,1.61,12.54-9.76,23.89-17.38,14.37-9.64,28.82-18.26,44.89-25.25,18.74,13.26,40.07,17.05,60.57,10.22,7.25-2.42,10.32-7.92,11.46-15.57,16.28-1.66,50.72-5.1,47.44-28.65,9.16-1.66,45-11.34,43.19-20.64ZM465.64,296.7c5.42-5.55,20.97-2.29,21.16-9.41.18-6.96-38.33-6.74-51.33-38.02,7.09-3.36,23.69,3.06,25.45-4.06.41-1.66-.88-3.23-3.03-4.1-17.17-6.92-31.72-17.7-42.04-34.62,15.71-1.66,31.08-1.26,46.54,2.35,20.63,4.36,37.58,16.21,48,35.59-13.14,22.6-12.17,47.93.4,72.27-17.71,1.44-34.67-5.89-45.15-20.01ZM621.61,334.65c-.8.65-1.6,1.28-2.4,1.91-.43.34-.86.67-1.3,1-8.68,6.6-17.96,12.17-27.38,18.09-.29.18-.58.36-.87.55-.69.43-1.38.87-2.07,1.31-.65.41-1.3.83-1.96,1.25-1.68,1.08-3.36,2.18-5.04,3.31-.34.22-.67.45-1.01.67-1.34.91-2.69,1.84-4.03,2.79-.34.24-.67.47-1.01.72-.17.12-.34.24-.5.36-.5.36-1,.73-1.51,1.1-.34.25-.67.49-1,.74-.33.25-.67.5-1.01.75-.33.25-.67.5-1,.76-.67.51-1.33,1.03-2,1.55-.33.26-.66.52-.99.79-.61.49-1.23.99-1.83,1.49-.35.28-.69.57-1.03.86-1.03.86-2.05,1.75-3.07,2.66-6.83-20.64-15.31-37.81-26.32-55.24-3.03-4.79-5.71-9.79-5.38-14.84-12.06-13.26-12.31-32.76-5.8-48.31.15-.33.3-.66.46-.99.14-.28.28-.57.42-.84.14-.28.29-.56.44-.84.12-.22.24-.43.35-.64.12-.22.24-.43.36-.63.59-1.02,1.22-1.99,1.89-2.93.22-.32.45-.63.69-.94.23-.31.47-.61.71-.91.24-.3.49-.6.74-.88.02-.03.04-.05.06-.07.21-.25.42-.48.64-.71.31-.34.63-.67.96-1,.2-.2.4-.4.61-.59.23-.22.47-.44.71-.65.11-.11.23-.21.35-.31.38-.33.77-.65,1.16-.95.16-.13.31-.25.47-.37.02-.01.03-.02.05-.04.23-.16.44-.33.67-.49.05-.04.1-.07.14-.1.28-.19.55-.38.83-.56.24-.16.49-.32.74-.47.29-.18.59-.36.88-.53.16-.09.31-.18.47-.26.44-.24.89-.47,1.34-.69.15-.07.29-.14.44-.2.02-.01.04-.02.06-.03.26-.12.52-.24.79-.35.31-.13.62-.26.93-.37.02,0,.04-.01.06-.02.34-.13.67-.24,1.01-.35.29-.1.59-.19.89-.28.77-.23,1.57-.43,2.37-.59.28-.05.57-.11.85-.15.37-.06.74-.12,1.11-.16.34-.04.67-.08,1.02-.12.03,0,.06,0,.08,0,.27-.02.54-.04.82-.06.11-.01.23-.02.34-.02.32-.02.65-.03.98-.03.24,0,.48,0,.73,0,.2,0,.4,0,.61.02.06,0,.11,0,.17,0,.24,0,.48.02.71.04.02,0,.04,0,.06,0,.28.01.56.04.85.07.32.03.63.07.96.11.19.02.38.05.57.07.02,0,.04,0,.06,0,.3.04.61.1.91.15.38.07.76.14,1.14.23,29.39,6.46,18.79,36.01,29.81,38.39.14.03.29.05.45.05.08.02.16.01.24.01.02,0,.05,0,.07,0,.09,0,.18-.01.28-.02.02,0,.04,0,.06,0,.11-.01.21-.03.32-.06.14-.03.28-.07.43-.11.1-.04.21-.07.31-.12,2.12-.84,4.56-3.19,7.46-5.86.47-.44.96-.88,1.46-1.33.16-.15.33-.3.5-.45,1.19-1.05,2.45-2.11,3.79-3.11,1.13-.85,2.32-1.65,3.57-2.36.17-.1.34-.2.51-.29.48-.27.98-.52,1.48-.76.28-.14.57-.26.86-.39.27-.12.54-.23.83-.33.03-.02.06-.03.09-.04.28-.11.57-.21.85-.3.26-.09.52-.16.77-.24.15-.04.31-.09.46-.12.23-.06.47-.12.7-.18.25-.07.51-.12.77-.16.07-.02.15-.03.22-.04.29-.05.57-.1.86-.13.31-.04.61-.08.92-.1.05,0,.1,0,.14-.02.31-.02.63-.04.95-.05.2,0,.39-.02.59-.01.08,0,.16,0,.24,0,.16,0,.31,0,.47.01.2,0,.4.02.61.03.21.01.41.03.62.05.07,0,.15.02.22.02.16.01.32.03.49.06.13.02.27.04.41.06.51.08,1.03.18,1.55.29.29.06.57.14.86.21.39.11.8.23,1.2.36.21.06.41.13.61.21.21.07.41.15.62.23h.01c2.19.83,4.48,2.02,6.9,3.66,10.38,7.01,15.95,16.02,14.24,30.01-1.68,13.71-10.74,25.91-21,34.72-.73.65-1.46,1.28-2.21,1.9-.58.5-1.17.99-1.76,1.46ZM713.34,309.5c-6.39,12.35,15.62,12.9,19.12,18.65-25.69,20.98-59.68,3.06-63.87,6.83-7.24,6.53,15.07,15.23,14.71,19.88-17.06,6.48-35.6,5.07-50.63-5.38,22.03-14.44,33.34-36.32,35.9-61.5,31.54-22.38,72.1-7.65,101.64,13.62-17.74,10.25-38.07,10.59-56.87,7.9Z"/>
        <path class="cls-10" d="M625.58,331.28c-.73.65-1.46,1.28-2.21,1.9-.59.5-1.17.98-1.76,1.46-.8.65-1.6,1.28-2.4,1.91-.43.34-.87.67-1.3,1-8.68,6.6-17.96,12.17-27.38,18.09-.29.18-.58.37-.87.55-.69.43-1.38.87-2.07,1.31-.65.41-1.3.83-1.96,1.25-1.68,1.08-3.36,2.18-5.04,3.31-.34.22-.68.45-1.01.67-1.34.91-2.69,1.84-4.03,2.79-.34.24-.68.47-1.01.72-.17.12-.34.24-.5.36-.51.36-1.01.73-1.51,1.1-.34.25-.67.49-1,.74-.34.25-.67.5-1.01.75-.33.25-.67.5-1,.76-.67.51-1.33,1.03-2,1.55-.3.24-.6.47-.89.71-.61.5-1.23.99-1.84,1.5-.38.31-.75.62-1.12.93-1.03.86-2.05,1.75-3.07,2.66-6.83-20.64-15.31-37.81-26.32-55.24-1.87-2.95-3.6-5.98-4.58-9.06-1.35-4.24-3.21-8.28-5.44-12.13-7.34-12.67-6.68-28.74-1.15-41.96.15-.33.3-.66.46-.99.14-.28.28-.57.42-.84.14-.28.29-.56.44-.84.12-.22.24-.43.35-.64.12-.22.24-.43.36-.63.59-1.02,1.22-1.99,1.89-2.93.22-.32.46-.63.69-.94s.47-.61.71-.91c.24-.3.48-.59.74-.88.02-.03.04-.05.06-.07.21-.24.42-.48.64-.71.31-.34.63-.67.96-1,.2-.2.4-.4.61-.59.23-.22.47-.44.71-.65.11-.11.23-.21.35-.31.38-.33.77-.65,1.16-.95.16-.13.31-.25.47-.37.02-.01.03-.02.05-.04.22-.16.44-.33.67-.49.05-.04.1-.07.14-.1.27-.19.55-.38.83-.56.24-.16.49-.32.74-.47.29-.18.59-.36.88-.53.16-.09.31-.18.47-.26.44-.24.89-.47,1.34-.69.15-.07.29-.14.44-.2.02-.01.04-.02.06-.03.26-.12.52-.24.79-.35.31-.13.62-.25.93-.37.02,0,.04-.01.06-.02.33-.12.67-.24,1.01-.35.29-.1.59-.19.89-.28.77-.23,1.57-.43,2.37-.59.28-.05.57-.11.85-.15.37-.06.74-.12,1.11-.16.34-.05.68-.08,1.02-.12.03,0,.06,0,.08,0,.27-.02.54-.05.82-.06.11-.01.23-.02.34-.02.32-.02.65-.03.98-.03.24,0,.48,0,.73,0,.2,0,.4,0,.61.02.06,0,.11,0,.17,0,.24,0,.48.02.71.04.02,0,.04,0,.06,0,.28.01.56.04.85.07.32.03.63.07.96.11.19.02.38.05.57.07.02,0,.04,0,.06,0,.3.04.61.1.91.15.38.07.76.14,1.14.23,29.39,6.46,18.79,36.01,29.81,38.39.14.03.29.05.45.05.08.02.16.01.24.01.02,0,.05,0,.07,0,.09,0,.18-.01.28-.02.02,0,.04,0,.06,0,.11-.01.21-.03.32-.06.14-.03.28-.07.43-.11.1-.03.2-.07.31-.12,2.12-.84,4.56-3.19,7.46-5.86.47-.44.96-.88,1.46-1.33.16-.15.33-.3.5-.45,1.19-1.05,2.45-2.11,3.79-3.11,1.13-.85,2.32-1.65,3.57-2.36.17-.1.34-.2.51-.29.48-.27.98-.52,1.48-.76.28-.14.57-.26.86-.39.27-.11.54-.23.83-.33.03-.02.06-.03.09-.04.28-.11.57-.21.85-.3.26-.09.52-.16.77-.24.15-.04.31-.09.46-.12.23-.06.47-.12.7-.18.25-.06.51-.11.77-.16.07-.02.15-.03.22-.04.29-.05.58-.09.86-.13.31-.04.61-.08.92-.1.05,0,.1,0,.14-.02.31-.02.63-.04.95-.05l8.49,1.52h.01c2.19.83,4.48,2.02,6.9,3.66,10.38,7.01,15.95,16.02,14.24,30.01-1.68,13.71-10.74,25.91-21,34.72Z"/>
        <path class="cls-11" d="M510.79,316.71c-17.71,1.44-34.67-5.89-45.16-20.01,5.43-5.55,20.97-2.3,21.16-9.41.18-6.96-38.32-6.74-51.33-38.01,7.09-3.37,23.7,3.06,25.45-4.06.41-1.67-.88-3.23-3.03-4.1-17.17-6.93-31.72-17.7-42.04-34.62,15.72-1.66,31.08-1.27,46.54,2.35,20.63,4.36,37.58,16.21,48.01,35.59-13.14,22.6-12.18,47.93.4,72.27Z"/>
        <path class="cls-11" d="M732.46,328.15c-25.69,20.99-59.69,3.05-63.87,6.83-7.24,6.53,15.07,15.23,14.71,19.88-17.06,6.47-35.6,5.07-50.63-5.38,22.03-14.44,33.35-36.32,35.9-61.5,31.54-22.37,72.09-7.64,101.63,13.62-17.74,10.25-38.07,10.59-56.86,7.9-6.39,12.35,15.61,12.9,19.12,18.65ZM720.96,302.04c.82-5-1.44-6.22-2.85-7-.93-.51-4.08-.58-4.25,1.44-.31,3.55,3.88,6.6,7.1,5.56ZM699.33,303.37c4.2-.11,3.57-4.14,3.28-5.84-.36-2.15-3.66-5.52-6.35-3.02-2.04,1.89-.69,8.96,3.06,8.86ZM684.67,321.25c.17-3.1-5.32-8.84-8.09-8.23-2.9,1.21-.42,5.89.69,7.67,1.22,1.94,7.06,4.1,7.39.57Z"/>
        <path class="cls-10" d="M624.82,262.68c-.2-.07-.41-.15-.61-.21-.41-.13-.81-.25-1.2-.36-.29-.08-.58-.15-.86-.21-.53-.12-1.04-.22-1.55-.29-.14-.02-.27-.04-.41-.06-.16-.03-.33-.04-.49-.06-.08,0-.15-.02-.22-.02-.21-.02-.41-.04-.62-.05-.21-.01-.41-.03-.61-.03-.16,0-.31-.01-.47-.01-.08,0-.16,0-.24,0-.2,0-.39,0-.59.01l8.49,1.52c-.21-.08-.41-.15-.62-.23Z"/>
        <path class="cls-6" d="M684.67,321.25c-.34,3.53-6.18,1.38-7.39-.57-1.11-1.78-3.6-6.46-.69-7.67,2.77-.61,8.25,5.13,8.09,8.23Z"/>
        <path class="cls-6" d="M699.33,303.37c-3.76.1-5.1-6.97-3.06-8.86,2.68-2.5,5.99.87,6.35,3.02.28,1.7.91,5.73-3.28,5.84Z"/>
        <path class="cls-6" d="M720.96,302.04c-3.22,1.05-7.41-2-7.1-5.56.18-2.02,3.33-1.96,4.25-1.44,1.4.78,3.66,2,2.85,7Z"/>
        <path class="cls-6" d="M480.45,244.72c3.27,1.98,8.02-3.46,7.17-6.12-1.12-3.51-5.73-2.27-7.13-.59-1.11,1.33-3.7,4.5-.04,6.71Z"/>
        <path class="cls-6" d="M461.99,232.67c2.32,2.53,7.56,2,9.07-1.23.86-1.84-1.96-3.37-3.03-3.39-1.63-.03-4.24-.12-6.04,4.62Z"/>
        <circle class="cls-12" cx="621.15" cy="287.74" r="4.76" transform="translate(182.71 813.47) rotate(-75.03)"/>
      </g>
    </g>
  </g>
</svg>